<?xml version="1.0" encoding="UTF-8"?>
<svg id="_Слой_2" data-name="Слой 2" xmlns="http://www.w3.org/2000/svg" viewBox="0 0 199.6 94">
  <defs>
    <style>
      .cls-1 {
        font-family: AmericanCaptain, 'American Captain';
        font-size: 67.85px;
      }

      .cls-1, .cls-2, .cls-3 {
        fill: #ededeb;
      }

      .cls-2 {
        font-family: Consolas-Bold, Consolas;
        font-size: 35.36px;
        font-weight: 700;
      }

      .cls-4 {
        letter-spacing: 0em;
      }

      .cls-3 {
        stroke-width: 0px;
      }
    </style>
  </defs>
  <g id="OBJECTS">
    <text class="cls-1" transform="translate(77.47 57.67)"><tspan x="0" y="0">N</tspan><tspan class="cls-4" x="28.57" y="0">E</tspan><tspan x="53.13" y="0">WS</tspan></text>
    <text class="cls-2" transform="translate(77.7 83.52) scale(1.23 1)"><tspan x="0" y="0">TODAY</tspan></text>
    <path class="cls-3" d="M51.65,8.31c.2,14.73.41,29.47.61,44.2C42.36,35.78,32.46,19.04,22.56,2.3,15.04,4.7,7.52,7.1,0,9.5c.33,25.61.66,51.23.99,76.84,7.84.04,15.67.08,23.51.12l-.29-44.79c10.02,17.44,20.04,34.89,30.06,52.33,7.42-3.54,14.84-7.08,22.26-10.62-.07-25.06-.14-50.12-.21-75.19-8.22.04-16.44.08-24.66.12Z"/>
  </g>
</svg>